<svg width="260" height="96" viewBox="0 0 260 96" fill="none" xmlns="http://www.w3.org/2000/svg">
<rect x="0.5" y="0.5" width="259" height="95" rx="8.5" fill="#373737"/>
<rect x="0.5" y="0.5" width="259" height="95" rx="8.5" stroke="#494949"/>
<path d="M74.9991 22.6027C75.0005 39.6131 75.0005 56.6222 74.9977 73.6326C74.9977 75.5385 73.5609 76.9876 71.6787 76.9862C66.96 76.9849 62.2412 76.9725 57.5225 76.9862C57.1032 76.9876 56.978 76.9023 56.978 76.4729C56.9877 69.39 56.9877 62.307 56.9684 55.224C56.9684 54.6708 57.1389 54.5525 57.671 54.5621C59.7788 54.5979 61.8865 54.5704 63.9929 54.5882C64.3847 54.591 64.5635 54.496 64.613 54.0777C64.9168 51.5387 65.2193 48.9998 65.5809 46.469C65.6703 45.8498 65.4682 45.7975 64.9553 45.8016C62.4818 45.8223 60.007 45.7975 57.5335 45.8223C57.1087 45.8264 56.9684 45.6984 56.9712 45.298C56.9877 43.3727 56.9395 41.4462 57.0193 39.5237C57.1128 37.2434 58.2457 36.1329 60.546 36.0269C62.1464 35.9526 63.7523 35.9774 65.3554 35.987C65.8201 35.9898 65.9728 35.8687 65.9659 35.3719C65.9343 33.1481 65.9439 30.9242 65.9576 28.7018C65.9604 28.3288 65.9081 28.0811 65.475 28.0646C62.5341 27.9476 59.5986 27.5541 56.6508 28.033C52.4614 28.7128 49.3569 31.5834 48.3766 35.7187C48.0411 37.1306 47.9545 38.559 47.9613 40.0012C47.9696 41.7668 47.9476 43.5324 47.9737 45.2966C47.9792 45.7301 47.8486 45.825 47.4347 45.8209C45.2816 45.7989 43.1285 45.8264 40.9754 45.7961C40.5134 45.7892 40.3993 45.9158 40.402 46.3617C40.4213 48.9296 40.424 51.4975 40.4007 54.0639C40.3965 54.5057 40.534 54.5882 40.9424 54.5841C43.0955 54.5649 45.2486 54.5896 47.4017 54.5676C47.8417 54.5635 47.9751 54.6681 47.9737 55.1277C47.9586 62.2107 47.96 69.2936 47.9723 76.378C47.9737 76.8321 47.8898 77 47.3839 77C38.3369 76.9794 29.2886 76.9725 20.2402 76.9835C18.3855 76.9862 17.0862 75.4656 17.0037 73.762C16.9954 73.6009 17.0037 73.4413 17.0037 73.2803C17.0037 56.4309 17.0037 39.5815 17.0023 22.7321C17.0023 20.3761 18.3786 19.0014 20.7544 19C29.1841 19 37.6137 19 46.0433 19V19.0096C54.5197 19.0096 62.9947 19.0041 71.4697 19.0138C73.5967 19.0165 74.9991 20.4615 74.9991 22.6027Z" fill="#0DAA14"/>
<path d="M104.825 41.3182L101.075 55.25H99.848L103.598 41.3182H104.825ZM106.415 53.5V44.7727H107.71V46.1364H107.824C108.006 45.6705 108.299 45.3087 108.705 45.0511C109.11 44.7898 109.597 44.6591 110.165 44.6591C110.741 44.6591 111.22 44.7898 111.602 45.0511C111.989 45.3087 112.29 45.6705 112.506 46.1364H112.597C112.82 45.6856 113.155 45.3277 113.602 45.0625C114.049 44.7936 114.585 44.6591 115.21 44.6591C115.991 44.6591 116.629 44.9034 117.125 45.392C117.621 45.8769 117.869 46.6326 117.869 47.6591V53.5H116.528V47.6591C116.528 47.0152 116.352 46.5549 116 46.2784C115.648 46.0019 115.233 45.8636 114.756 45.8636C114.142 45.8636 113.667 46.0492 113.33 46.4205C112.992 46.7879 112.824 47.2538 112.824 47.8182V53.5H111.46V47.5227C111.46 47.0265 111.299 46.6269 110.977 46.3239C110.655 46.017 110.241 45.8636 109.733 45.8636C109.384 45.8636 109.059 45.9564 108.756 46.142C108.456 46.3277 108.214 46.5852 108.028 46.9148C107.847 47.2405 107.756 47.6174 107.756 48.0455V53.5H106.415ZM122.889 53.7045C122.336 53.7045 121.834 53.6004 121.384 53.392C120.933 53.1799 120.575 52.875 120.31 52.4773C120.045 52.0758 119.912 51.5909 119.912 51.0227C119.912 50.5227 120.01 50.1174 120.207 49.8068C120.404 49.4924 120.668 49.2462 120.997 49.0682C121.327 48.8902 121.69 48.7576 122.088 48.6705C122.49 48.5795 122.893 48.5076 123.298 48.4545C123.829 48.3864 124.259 48.3352 124.588 48.3011C124.921 48.2633 125.164 48.2008 125.315 48.1136C125.471 48.0265 125.548 47.875 125.548 47.6591V47.6136C125.548 47.053 125.395 46.6174 125.088 46.3068C124.785 45.9962 124.325 45.8409 123.707 45.8409C123.067 45.8409 122.565 45.9811 122.202 46.2614C121.838 46.5417 121.582 46.8409 121.435 47.1591L120.162 46.7045C120.389 46.1742 120.692 45.7614 121.071 45.4659C121.454 45.1667 121.87 44.9583 122.321 44.8409C122.776 44.7197 123.223 44.6591 123.662 44.6591C123.942 44.6591 124.264 44.6932 124.628 44.7614C124.995 44.8258 125.349 44.9602 125.69 45.1648C126.035 45.3693 126.321 45.678 126.548 46.0909C126.776 46.5038 126.889 47.0568 126.889 47.75V53.5H125.548V52.3182H125.48C125.389 52.5076 125.238 52.7102 125.026 52.9261C124.813 53.142 124.531 53.3258 124.179 53.4773C123.827 53.6288 123.397 53.7045 122.889 53.7045ZM123.094 52.5C123.624 52.5 124.071 52.3958 124.435 52.1875C124.802 51.9792 125.079 51.7102 125.264 51.3807C125.454 51.0511 125.548 50.7045 125.548 50.3409V49.1136C125.491 49.1818 125.366 49.2443 125.173 49.3011C124.984 49.3542 124.764 49.4015 124.514 49.4432C124.268 49.4811 124.027 49.5152 123.793 49.5455C123.562 49.572 123.374 49.5947 123.23 49.6136C122.882 49.6591 122.556 49.733 122.253 49.8352C121.954 49.9337 121.711 50.0833 121.526 50.2841C121.344 50.4811 121.253 50.75 121.253 51.0909C121.253 51.5568 121.425 51.9091 121.77 52.1477C122.118 52.3826 122.56 52.5 123.094 52.5ZM135.518 46.7273L134.314 47.0682C134.238 46.8674 134.126 46.6723 133.979 46.483C133.835 46.2898 133.638 46.1307 133.388 46.0057C133.138 45.8807 132.818 45.8182 132.428 45.8182C131.893 45.8182 131.448 45.9413 131.092 46.1875C130.74 46.4299 130.564 46.7386 130.564 47.1136C130.564 47.447 130.685 47.7102 130.928 47.9034C131.17 48.0966 131.549 48.2576 132.064 48.3864L133.359 48.7045C134.14 48.8939 134.721 49.1837 135.104 49.5739C135.486 49.9602 135.678 50.4583 135.678 51.0682C135.678 51.5682 135.534 52.0152 135.246 52.4091C134.962 52.803 134.564 53.1136 134.053 53.3409C133.541 53.5682 132.946 53.6818 132.268 53.6818C131.378 53.6818 130.642 53.4886 130.058 53.1023C129.475 52.7159 129.106 52.1515 128.95 51.4091L130.223 51.0909C130.344 51.5606 130.573 51.9129 130.911 52.1477C131.251 52.3826 131.696 52.5 132.246 52.5C132.871 52.5 133.367 52.3674 133.734 52.1023C134.106 51.8333 134.291 51.5114 134.291 51.1364C134.291 50.8333 134.185 50.5795 133.973 50.375C133.761 50.1667 133.435 50.0114 132.996 49.9091L131.541 49.5682C130.742 49.3788 130.155 49.0852 129.78 48.6875C129.409 48.286 129.223 47.7841 129.223 47.1818C129.223 46.6894 129.361 46.2538 129.638 45.875C129.918 45.4962 130.299 45.1989 130.78 44.983C131.265 44.767 131.814 44.6591 132.428 44.6591C133.291 44.6591 133.969 44.8485 134.462 45.2273C134.958 45.6061 135.31 46.1061 135.518 46.7273ZM143.196 49.9318V44.7727H144.537V53.5H143.196V52.0227H143.105C142.901 52.4659 142.582 52.8428 142.151 53.1534C141.719 53.4602 141.173 53.6136 140.514 53.6136C139.969 53.6136 139.484 53.4943 139.06 53.2557C138.635 53.0133 138.302 52.6496 138.06 52.1648C137.817 51.6761 137.696 51.0606 137.696 50.3182V44.7727H139.037V50.2273C139.037 50.8636 139.215 51.3712 139.571 51.75C139.931 52.1288 140.389 52.3182 140.946 52.3182C141.279 52.3182 141.618 52.233 141.963 52.0625C142.312 51.892 142.603 51.6307 142.838 51.2784C143.077 50.9261 143.196 50.4773 143.196 49.9318ZM150.288 53.6818C149.561 53.6818 148.919 53.4981 148.362 53.1307C147.805 52.7595 147.37 52.2367 147.055 51.5625C146.741 50.8845 146.584 50.0833 146.584 49.1591C146.584 48.2424 146.741 47.447 147.055 46.7727C147.37 46.0985 147.807 45.5777 148.368 45.2102C148.929 44.8428 149.576 44.6591 150.311 44.6591C150.879 44.6591 151.328 44.7538 151.658 44.9432C151.991 45.1288 152.245 45.3409 152.419 45.5795C152.597 45.8144 152.735 46.0076 152.834 46.1591H152.947V41.8636H154.288V53.5H152.993V52.1591H152.834C152.735 52.3182 152.595 52.5189 152.413 52.7614C152.232 53 151.972 53.214 151.635 53.4034C151.298 53.589 150.849 53.6818 150.288 53.6818ZM150.47 52.4773C151.008 52.4773 151.463 52.3371 151.834 52.0568C152.205 51.7727 152.487 51.3807 152.68 50.8807C152.874 50.3769 152.97 49.7955 152.97 49.1364C152.97 48.4848 152.875 47.9148 152.686 47.4261C152.497 46.9337 152.216 46.5511 151.845 46.2784C151.474 46.0019 151.016 45.8636 150.47 45.8636C149.902 45.8636 149.429 46.0095 149.05 46.3011C148.675 46.589 148.393 46.9811 148.203 47.4773C148.018 47.9697 147.925 48.5227 147.925 49.1364C147.925 49.7576 148.019 50.322 148.209 50.8295C148.402 51.3333 148.686 51.7348 149.061 52.0341C149.44 52.3295 149.91 52.4773 150.47 52.4773ZM159.499 53.7045C158.946 53.7045 158.444 53.6004 157.993 53.392C157.542 53.1799 157.184 52.875 156.919 52.4773C156.654 52.0758 156.521 51.5909 156.521 51.0227C156.521 50.5227 156.62 50.1174 156.817 49.8068C157.014 49.4924 157.277 49.2462 157.607 49.0682C157.936 48.8902 158.3 48.7576 158.697 48.6705C159.099 48.5795 159.502 48.5076 159.908 48.4545C160.438 48.3864 160.868 48.3352 161.197 48.3011C161.531 48.2633 161.773 48.2008 161.925 48.1136C162.08 48.0265 162.158 47.875 162.158 47.6591V47.6136C162.158 47.053 162.004 46.6174 161.697 46.3068C161.394 45.9962 160.934 45.8409 160.317 45.8409C159.677 45.8409 159.175 45.9811 158.811 46.2614C158.447 46.5417 158.192 46.8409 158.044 47.1591L156.771 46.7045C156.999 46.1742 157.302 45.7614 157.68 45.4659C158.063 45.1667 158.48 44.9583 158.93 44.8409C159.385 44.7197 159.832 44.6591 160.271 44.6591C160.552 44.6591 160.874 44.6932 161.237 44.7614C161.605 44.8258 161.959 44.9602 162.3 45.1648C162.644 45.3693 162.93 45.678 163.158 46.0909C163.385 46.5038 163.499 47.0568 163.499 47.75V53.5H162.158V52.3182H162.089C161.999 52.5076 161.847 52.7102 161.635 52.9261C161.423 53.142 161.141 53.3258 160.788 53.4773C160.436 53.6288 160.006 53.7045 159.499 53.7045ZM159.703 52.5C160.233 52.5 160.68 52.3958 161.044 52.1875C161.411 51.9792 161.688 51.7102 161.874 51.3807C162.063 51.0511 162.158 50.7045 162.158 50.3409V49.1136C162.101 49.1818 161.976 49.2443 161.783 49.3011C161.593 49.3542 161.374 49.4015 161.124 49.4432C160.877 49.4811 160.637 49.5152 160.402 49.5455C160.171 49.572 159.983 49.5947 159.839 49.6136C159.491 49.6591 159.165 49.733 158.862 49.8352C158.563 49.9337 158.321 50.0833 158.135 50.2841C157.953 50.4811 157.862 50.75 157.862 51.0909C157.862 51.5568 158.035 51.9091 158.379 52.1477C158.728 52.3826 159.169 52.5 159.703 52.5ZM167.287 41.8636V53.5H165.946V41.8636H167.287ZM169.743 53.5V44.7727H171.038V46.1364H171.152C171.334 45.6705 171.627 45.3087 172.033 45.0511C172.438 44.7898 172.925 44.6591 173.493 44.6591C174.069 44.6591 174.548 44.7898 174.93 45.0511C175.317 45.3087 175.618 45.6705 175.834 46.1364H175.925C176.148 45.6856 176.483 45.3277 176.93 45.0625C177.377 44.7936 177.913 44.6591 178.538 44.6591C179.319 44.6591 179.957 44.9034 180.453 45.392C180.949 45.8769 181.197 46.6326 181.197 47.6591V53.5H179.857V47.6591C179.857 47.0152 179.68 46.5549 179.328 46.2784C178.976 46.0019 178.561 45.8636 178.084 45.8636C177.47 45.8636 176.995 46.0492 176.658 46.4205C176.321 46.7879 176.152 47.2538 176.152 47.8182V53.5H174.788V47.5227C174.788 47.0265 174.627 46.6269 174.305 46.3239C173.983 46.017 173.569 45.8636 173.061 45.8636C172.713 45.8636 172.387 45.9564 172.084 46.142C171.785 46.3277 171.542 46.5852 171.357 46.9148C171.175 47.2405 171.084 47.6174 171.084 48.0455V53.5H169.743ZM186.217 53.7045C185.664 53.7045 185.162 53.6004 184.712 53.392C184.261 53.1799 183.903 52.875 183.638 52.4773C183.373 52.0758 183.24 51.5909 183.24 51.0227C183.24 50.5227 183.339 50.1174 183.536 49.8068C183.732 49.4924 183.996 49.2462 184.325 49.0682C184.655 48.8902 185.018 48.7576 185.416 48.6705C185.818 48.5795 186.221 48.5076 186.626 48.4545C187.157 48.3864 187.587 48.3352 187.916 48.3011C188.25 48.2633 188.492 48.2008 188.643 48.1136C188.799 48.0265 188.876 47.875 188.876 47.6591V47.6136C188.876 47.053 188.723 46.6174 188.416 46.3068C188.113 45.9962 187.653 45.8409 187.036 45.8409C186.395 45.8409 185.893 45.9811 185.53 46.2614C185.166 46.5417 184.911 46.8409 184.763 47.1591L183.49 46.7045C183.717 46.1742 184.02 45.7614 184.399 45.4659C184.782 45.1667 185.198 44.9583 185.649 44.8409C186.104 44.7197 186.551 44.6591 186.99 44.6591C187.27 44.6591 187.592 44.6932 187.956 44.7614C188.323 44.8258 188.678 44.9602 189.018 45.1648C189.363 45.3693 189.649 45.678 189.876 46.0909C190.104 46.5038 190.217 47.0568 190.217 47.75V53.5H188.876V52.3182H188.808C188.717 52.5076 188.566 52.7102 188.354 52.9261C188.142 53.142 187.859 53.3258 187.507 53.4773C187.155 53.6288 186.725 53.7045 186.217 53.7045ZM186.422 52.5C186.952 52.5 187.399 52.3958 187.763 52.1875C188.13 51.9792 188.407 51.7102 188.592 51.3807C188.782 51.0511 188.876 50.7045 188.876 50.3409V49.1136C188.82 49.1818 188.695 49.2443 188.501 49.3011C188.312 49.3542 188.092 49.4015 187.842 49.4432C187.596 49.4811 187.356 49.5152 187.121 49.5455C186.89 49.572 186.702 49.5947 186.558 49.6136C186.21 49.6591 185.884 49.733 185.581 49.8352C185.282 49.9337 185.039 50.0833 184.854 50.2841C184.672 50.4811 184.581 50.75 184.581 51.0909C184.581 51.5568 184.753 51.9091 185.098 52.1477C185.446 52.3826 185.888 52.5 186.422 52.5ZM194.006 48.25V53.5H192.665V41.8636H194.006V46.1364H194.119C194.324 45.6856 194.631 45.3277 195.04 45.0625C195.453 44.7936 196.002 44.6591 196.688 44.6591C197.282 44.6591 197.803 44.7784 198.25 45.017C198.697 45.2519 199.044 45.6136 199.29 46.1023C199.54 46.5871 199.665 47.2045 199.665 47.9545V53.5H198.324V48.0455C198.324 47.3523 198.144 46.8163 197.784 46.4375C197.428 46.0549 196.934 45.8636 196.301 45.8636C195.862 45.8636 195.468 45.9564 195.119 46.142C194.775 46.3277 194.502 46.5985 194.301 46.9545C194.104 47.3106 194.006 47.7424 194.006 48.25ZM205.413 53.6818C204.686 53.6818 204.044 53.4981 203.487 53.1307C202.93 52.7595 202.495 52.2367 202.18 51.5625C201.866 50.8845 201.709 50.0833 201.709 49.1591C201.709 48.2424 201.866 47.447 202.18 46.7727C202.495 46.0985 202.932 45.5777 203.493 45.2102C204.054 44.8428 204.701 44.6591 205.436 44.6591C206.004 44.6591 206.453 44.7538 206.783 44.9432C207.116 45.1288 207.37 45.3409 207.544 45.5795C207.722 45.8144 207.86 46.0076 207.959 46.1591H208.072V41.8636H209.413V53.5H208.118V52.1591H207.959C207.86 52.3182 207.72 52.5189 207.538 52.7614C207.357 53 207.097 53.214 206.76 53.4034C206.423 53.589 205.974 53.6818 205.413 53.6818ZM205.595 52.4773C206.133 52.4773 206.588 52.3371 206.959 52.0568C207.33 51.7727 207.612 51.3807 207.805 50.8807C207.999 50.3769 208.095 49.7955 208.095 49.1364C208.095 48.4848 208 47.9148 207.811 47.4261C207.622 46.9337 207.341 46.5511 206.97 46.2784C206.599 46.0019 206.141 45.8636 205.595 45.8636C205.027 45.8636 204.554 46.0095 204.175 46.3011C203.8 46.589 203.518 46.9811 203.328 47.4773C203.143 47.9697 203.05 48.5227 203.05 49.1364C203.05 49.7576 203.144 50.322 203.334 50.8295C203.527 51.3333 203.811 51.7348 204.186 52.0341C204.565 52.3295 205.035 52.4773 205.595 52.4773ZM212.055 53.5V44.7727H213.396V53.5H212.055ZM212.737 43.3182C212.476 43.3182 212.25 43.2292 212.061 43.0511C211.875 42.8731 211.783 42.6591 211.783 42.4091C211.783 42.1591 211.875 41.9451 212.061 41.767C212.25 41.589 212.476 41.5 212.737 41.5C212.999 41.5 213.222 41.589 213.408 41.767C213.597 41.9451 213.692 42.1591 213.692 42.4091C213.692 42.6591 213.597 42.8731 213.408 43.0511C213.222 43.2292 212.999 43.3182 212.737 43.3182ZM219.148 53.6818C218.42 53.6818 217.778 53.4981 217.222 53.1307C216.665 52.7595 216.229 52.2367 215.915 51.5625C215.6 50.8845 215.443 50.0833 215.443 49.1591C215.443 48.2424 215.6 47.447 215.915 46.7727C216.229 46.0985 216.667 45.5777 217.227 45.2102C217.788 44.8428 218.436 44.6591 219.17 44.6591C219.739 44.6591 220.188 44.7538 220.517 44.9432C220.85 45.1288 221.104 45.3409 221.278 45.5795C221.456 45.8144 221.595 46.0076 221.693 46.1591H221.807V41.8636H223.148V53.5H221.852V52.1591H221.693C221.595 52.3182 221.455 52.5189 221.273 52.7614C221.091 53 220.831 53.214 220.494 53.4034C220.157 53.589 219.708 53.6818 219.148 53.6818ZM219.33 52.4773C219.867 52.4773 220.322 52.3371 220.693 52.0568C221.064 51.7727 221.347 51.3807 221.54 50.8807C221.733 50.3769 221.83 49.7955 221.83 49.1364C221.83 48.4848 221.735 47.9148 221.545 47.4261C221.356 46.9337 221.076 46.5511 220.705 46.2784C220.333 46.0019 219.875 45.8636 219.33 45.8636C218.761 45.8636 218.288 46.0095 217.909 46.3011C217.534 46.589 217.252 46.9811 217.062 47.4773C216.877 47.9697 216.784 48.5227 216.784 49.1364C216.784 49.7576 216.879 50.322 217.068 50.8295C217.261 51.3333 217.545 51.7348 217.92 52.0341C218.299 52.3295 218.769 52.4773 219.33 52.4773ZM229.449 53.6818C228.608 53.6818 227.883 53.4962 227.273 53.125C226.667 52.75 226.199 52.2273 225.869 51.5568C225.544 50.8826 225.381 50.0985 225.381 49.2045C225.381 48.3106 225.544 47.5227 225.869 46.8409C226.199 46.1553 226.657 45.6212 227.244 45.2386C227.835 44.8523 228.525 44.6591 229.312 44.6591C229.767 44.6591 230.216 44.7348 230.659 44.8864C231.102 45.0379 231.506 45.2841 231.869 45.625C232.233 45.9621 232.523 46.4091 232.739 46.9659C232.955 47.5227 233.062 48.2083 233.062 49.0227V49.5909H226.335V48.4318H231.699C231.699 47.9394 231.6 47.5 231.403 47.1136C231.21 46.7273 230.934 46.4223 230.574 46.1989C230.218 45.9754 229.797 45.8636 229.312 45.8636C228.778 45.8636 228.316 45.9962 227.926 46.2614C227.54 46.5227 227.242 46.8636 227.034 47.2841C226.826 47.7045 226.722 48.1553 226.722 48.6364V49.4091C226.722 50.0682 226.835 50.6269 227.062 51.0852C227.294 51.5398 227.614 51.8864 228.023 52.125C228.432 52.3598 228.907 52.4773 229.449 52.4773C229.801 52.4773 230.119 52.428 230.403 52.3295C230.691 52.2273 230.939 52.0758 231.148 51.875C231.356 51.6705 231.517 51.4167 231.631 51.1136L232.926 51.4773C232.79 51.9167 232.561 52.303 232.239 52.6364C231.917 52.9659 231.519 53.2235 231.045 53.4091C230.572 53.5909 230.04 53.6818 229.449 53.6818ZM241.973 44.7727L238.746 53.5H237.382L234.155 44.7727H235.609L238.018 51.7273H238.109L240.518 44.7727H241.973Z" fill="white"/>
</svg>
