<svg width="278" height="96" viewBox="0 0 278 96" fill="none" xmlns="http://www.w3.org/2000/svg">
<rect x="0.5" y="0.5" width="277" height="95" rx="8.5" fill="#373737"/>
<rect x="0.5" y="0.5" width="277" height="95" rx="8.5" stroke="#494949"/>
<path d="M66.5418 23.8333H25.4585C24.4971 23.8333 23.5751 24.2152 22.8952 24.895C22.2154 25.5748 21.8335 26.4968 21.8335 27.4583V68.5416C21.8335 69.503 22.2154 70.425 22.8952 71.1048C23.5751 71.7847 24.4971 72.1666 25.4585 72.1666H66.5418C67.5032 72.1666 68.4253 71.7847 69.1051 71.1048C69.7849 70.425 70.1668 69.503 70.1668 68.5416V27.4583C70.1668 26.4968 69.7849 25.5748 69.1051 24.895C68.4253 24.2152 67.5032 23.8333 66.5418 23.8333ZM36.3335 64.9166H29.0835V43.1666H36.3335V64.9166ZM32.7085 38.9374C31.8776 38.9137 31.0721 38.6456 30.3927 38.1667C29.7133 37.6878 29.1901 37.0193 28.8885 36.2447C28.5868 35.4701 28.5201 34.6239 28.6967 33.8116C28.8733 32.9993 29.2853 32.2571 29.8813 31.6777C30.4773 31.0983 31.2308 30.7073 32.0477 30.5537C32.8646 30.4 33.7087 30.4906 34.4744 30.8139C35.2402 31.1372 35.8937 31.6791 36.3533 32.3717C36.8129 33.0643 37.0582 33.877 37.0585 34.7083C37.0394 35.8449 36.5711 36.9278 35.756 37.7203C34.9409 38.5128 33.8453 38.9504 32.7085 38.9374ZM62.9168 64.9166H55.6668V53.4616C55.6668 50.0299 54.2168 48.7974 52.3318 48.7974C51.7792 48.8342 51.2392 48.9798 50.743 49.2259C50.2468 49.472 49.804 49.8137 49.4402 50.2314C49.0765 50.649 48.7988 51.1345 48.6232 51.6598C48.4475 52.1851 48.3774 52.7399 48.4168 53.2924C48.4048 53.4049 48.4048 53.5183 48.4168 53.6307V64.9166H41.1668V43.1666H48.1752V46.3083C48.8821 45.2328 49.8534 44.357 50.9959 43.7646C52.1384 43.1721 53.4139 42.883 54.7002 42.9249C58.446 42.9249 62.8202 45.0033 62.8202 51.7699L62.9168 64.9166Z" fill="#0DAA14"/>
<path d="M104.396 41.3182L100.646 55.25H99.4183L103.168 41.3182H104.396ZM105.985 53.5V44.7727H107.326V53.5H105.985ZM106.667 43.3182C106.406 43.3182 106.18 43.2292 105.991 43.0511C105.805 42.8731 105.712 42.6591 105.712 42.4091C105.712 42.1591 105.805 41.9451 105.991 41.767C106.18 41.589 106.406 41.5 106.667 41.5C106.928 41.5 107.152 41.589 107.337 41.767C107.527 41.9451 107.621 42.1591 107.621 42.4091C107.621 42.6591 107.527 42.8731 107.337 43.0511C107.152 43.2292 106.928 43.3182 106.667 43.3182ZM111.123 48.25V53.5H109.782V44.7727H111.077V46.1364H111.191C111.396 45.6932 111.706 45.3371 112.123 45.0682C112.54 44.7955 113.077 44.6591 113.737 44.6591C114.327 44.6591 114.844 44.7803 115.288 45.0227C115.731 45.2614 116.076 45.625 116.322 46.1136C116.568 46.5985 116.691 47.2121 116.691 47.9545V53.5H115.35V48.0455C115.35 47.3598 115.172 46.8258 114.816 46.4432C114.46 46.0568 113.971 45.8636 113.35 45.8636C112.922 45.8636 112.54 45.9564 112.202 46.142C111.869 46.3277 111.606 46.5985 111.413 46.9545C111.219 47.3106 111.123 47.7424 111.123 48.25ZM123.255 41.3182L119.505 55.25H118.278L122.028 41.3182H123.255ZM124.844 53.5V44.7727H126.14V46.1364H126.254C126.435 45.6705 126.729 45.3087 127.134 45.0511C127.54 44.7898 128.026 44.6591 128.594 44.6591C129.17 44.6591 129.649 44.7898 130.032 45.0511C130.418 45.3087 130.719 45.6705 130.935 46.1364H131.026C131.25 45.6856 131.585 45.3277 132.032 45.0625C132.479 44.7936 133.015 44.6591 133.64 44.6591C134.42 44.6591 135.058 44.9034 135.555 45.392C136.051 45.8769 136.299 46.6326 136.299 47.6591V53.5H134.958V47.6591C134.958 47.0152 134.782 46.5549 134.43 46.2784C134.077 46.0019 133.663 45.8636 133.185 45.8636C132.572 45.8636 132.096 46.0492 131.759 46.4205C131.422 46.7879 131.254 47.2538 131.254 47.8182V53.5H129.89V47.5227C129.89 47.0265 129.729 46.6269 129.407 46.3239C129.085 46.017 128.67 45.8636 128.163 45.8636C127.814 45.8636 127.488 45.9564 127.185 46.142C126.886 46.3277 126.644 46.5852 126.458 46.9148C126.276 47.2405 126.185 47.6174 126.185 48.0455V53.5H124.844ZM141.319 53.7045C140.766 53.7045 140.264 53.6004 139.813 53.392C139.362 53.1799 139.004 52.875 138.739 52.4773C138.474 52.0758 138.342 51.5909 138.342 51.0227C138.342 50.5227 138.44 50.1174 138.637 49.8068C138.834 49.4924 139.097 49.2462 139.427 49.0682C139.756 48.8902 140.12 48.7576 140.518 48.6705C140.919 48.5795 141.323 48.5076 141.728 48.4545C142.258 48.3864 142.688 48.3352 143.018 48.3011C143.351 48.2633 143.594 48.2008 143.745 48.1136C143.9 48.0265 143.978 47.875 143.978 47.6591V47.6136C143.978 47.053 143.825 46.6174 143.518 46.3068C143.215 45.9962 142.754 45.8409 142.137 45.8409C141.497 45.8409 140.995 45.9811 140.631 46.2614C140.268 46.5417 140.012 46.8409 139.864 47.1591L138.592 46.7045C138.819 46.1742 139.122 45.7614 139.501 45.4659C139.883 45.1667 140.3 44.9583 140.751 44.8409C141.205 44.7197 141.652 44.6591 142.092 44.6591C142.372 44.6591 142.694 44.6932 143.058 44.7614C143.425 44.8258 143.779 44.9602 144.12 45.1648C144.465 45.3693 144.751 45.678 144.978 46.0909C145.205 46.5038 145.319 47.0568 145.319 47.75V53.5H143.978V52.3182H143.91C143.819 52.5076 143.667 52.7102 143.455 52.9261C143.243 53.142 142.961 53.3258 142.609 53.4773C142.256 53.6288 141.826 53.7045 141.319 53.7045ZM141.523 52.5C142.054 52.5 142.501 52.3958 142.864 52.1875C143.232 51.9792 143.508 51.7102 143.694 51.3807C143.883 51.0511 143.978 50.7045 143.978 50.3409V49.1136C143.921 49.1818 143.796 49.2443 143.603 49.3011C143.414 49.3542 143.194 49.4015 142.944 49.4432C142.698 49.4811 142.457 49.5152 142.222 49.5455C141.991 49.572 141.804 49.5947 141.66 49.6136C141.311 49.6591 140.986 49.733 140.683 49.8352C140.383 49.9337 140.141 50.0833 139.955 50.2841C139.773 50.4811 139.683 50.75 139.683 51.0909C139.683 51.5568 139.855 51.9091 140.2 52.1477C140.548 52.3826 140.989 52.5 141.523 52.5ZM153.948 46.7273L152.744 47.0682C152.668 46.8674 152.556 46.6723 152.408 46.483C152.264 46.2898 152.067 46.1307 151.817 46.0057C151.567 45.8807 151.247 45.8182 150.857 45.8182C150.323 45.8182 149.878 45.9413 149.522 46.1875C149.17 46.4299 148.994 46.7386 148.994 47.1136C148.994 47.447 149.115 47.7102 149.357 47.9034C149.6 48.0966 149.978 48.2576 150.494 48.3864L151.789 48.7045C152.569 48.8939 153.151 49.1837 153.533 49.5739C153.916 49.9602 154.107 50.4583 154.107 51.0682C154.107 51.5682 153.963 52.0152 153.675 52.4091C153.391 52.803 152.994 53.1136 152.482 53.3409C151.971 53.5682 151.376 53.6818 150.698 53.6818C149.808 53.6818 149.071 53.4886 148.488 53.1023C147.905 52.7159 147.535 52.1515 147.38 51.4091L148.653 51.0909C148.774 51.5606 149.003 51.9129 149.34 52.1477C149.681 52.3826 150.126 52.5 150.675 52.5C151.3 52.5 151.797 52.3674 152.164 52.1023C152.535 51.8333 152.721 51.5114 152.721 51.1364C152.721 50.8333 152.615 50.5795 152.403 50.375C152.191 50.1667 151.865 50.0114 151.425 49.9091L149.971 49.5682C149.172 49.3788 148.585 49.0852 148.21 48.6875C147.838 48.286 147.653 47.7841 147.653 47.1818C147.653 46.6894 147.791 46.2538 148.067 45.875C148.348 45.4962 148.728 45.1989 149.21 44.983C149.694 44.767 150.244 44.6591 150.857 44.6591C151.721 44.6591 152.399 44.8485 152.891 45.2273C153.388 45.6061 153.74 46.1061 153.948 46.7273ZM161.626 49.9318V44.7727H162.967V53.5H161.626V52.0227H161.535C161.33 52.4659 161.012 52.8428 160.58 53.1534C160.148 53.4602 159.603 53.6136 158.944 53.6136C158.398 53.6136 157.914 53.4943 157.489 53.2557C157.065 53.0133 156.732 52.6496 156.489 52.1648C156.247 51.6761 156.126 51.0606 156.126 50.3182V44.7727H157.467V50.2273C157.467 50.8636 157.645 51.3712 158.001 51.75C158.361 52.1288 158.819 52.3182 159.376 52.3182C159.709 52.3182 160.048 52.233 160.393 52.0625C160.741 51.892 161.033 51.6307 161.268 51.2784C161.506 50.9261 161.626 50.4773 161.626 49.9318ZM168.718 53.6818C167.991 53.6818 167.349 53.4981 166.792 53.1307C166.235 52.7595 165.799 52.2367 165.485 51.5625C165.171 50.8845 165.013 50.0833 165.013 49.1591C165.013 48.2424 165.171 47.447 165.485 46.7727C165.799 46.0985 166.237 45.5777 166.798 45.2102C167.358 44.8428 168.006 44.6591 168.741 44.6591C169.309 44.6591 169.758 44.7538 170.087 44.9432C170.421 45.1288 170.674 45.3409 170.849 45.5795C171.027 45.8144 171.165 46.0076 171.263 46.1591H171.377V41.8636H172.718V53.5H171.423V52.1591H171.263C171.165 52.3182 171.025 52.5189 170.843 52.7614C170.661 53 170.402 53.214 170.065 53.4034C169.728 53.589 169.279 53.6818 168.718 53.6818ZM168.9 52.4773C169.438 52.4773 169.892 52.3371 170.263 52.0568C170.635 51.7727 170.917 51.3807 171.11 50.8807C171.303 50.3769 171.4 49.7955 171.4 49.1364C171.4 48.4848 171.305 47.9148 171.116 47.4261C170.926 46.9337 170.646 46.5511 170.275 46.2784C169.904 46.0019 169.445 45.8636 168.9 45.8636C168.332 45.8636 167.858 46.0095 167.479 46.3011C167.104 46.589 166.822 46.9811 166.633 47.4773C166.447 47.9697 166.354 48.5227 166.354 49.1364C166.354 49.7576 166.449 50.322 166.638 50.8295C166.832 51.3333 167.116 51.7348 167.491 52.0341C167.87 52.3295 168.339 52.4773 168.9 52.4773ZM177.928 53.7045C177.375 53.7045 176.873 53.6004 176.423 53.392C175.972 53.1799 175.614 52.875 175.349 52.4773C175.084 52.0758 174.951 51.5909 174.951 51.0227C174.951 50.5227 175.049 50.1174 175.246 49.8068C175.443 49.4924 175.707 49.2462 176.036 49.0682C176.366 48.8902 176.729 48.7576 177.127 48.6705C177.529 48.5795 177.932 48.5076 178.337 48.4545C178.868 48.3864 179.298 48.3352 179.627 48.3011C179.96 48.2633 180.203 48.2008 180.354 48.1136C180.51 48.0265 180.587 47.875 180.587 47.6591V47.6136C180.587 47.053 180.434 46.6174 180.127 46.3068C179.824 45.9962 179.364 45.8409 178.746 45.8409C178.106 45.8409 177.604 45.9811 177.241 46.2614C176.877 46.5417 176.621 46.8409 176.474 47.1591L175.201 46.7045C175.428 46.1742 175.731 45.7614 176.11 45.4659C176.493 45.1667 176.909 44.9583 177.36 44.8409C177.815 44.7197 178.262 44.6591 178.701 44.6591C178.981 44.6591 179.303 44.6932 179.667 44.7614C180.034 44.8258 180.388 44.9602 180.729 45.1648C181.074 45.3693 181.36 45.678 181.587 46.0909C181.815 46.5038 181.928 47.0568 181.928 47.75V53.5H180.587V52.3182H180.519C180.428 52.5076 180.277 52.7102 180.065 52.9261C179.853 53.142 179.57 53.3258 179.218 53.4773C178.866 53.6288 178.436 53.7045 177.928 53.7045ZM178.133 52.5C178.663 52.5 179.11 52.3958 179.474 52.1875C179.841 51.9792 180.118 51.7102 180.303 51.3807C180.493 51.0511 180.587 50.7045 180.587 50.3409V49.1136C180.531 49.1818 180.406 49.2443 180.212 49.3011C180.023 49.3542 179.803 49.4015 179.553 49.4432C179.307 49.4811 179.067 49.5152 178.832 49.5455C178.601 49.572 178.413 49.5947 178.269 49.6136C177.921 49.6591 177.595 49.733 177.292 49.8352C176.993 49.9337 176.75 50.0833 176.565 50.2841C176.383 50.4811 176.292 50.75 176.292 51.0909C176.292 51.5568 176.464 51.9091 176.809 52.1477C177.157 52.3826 177.599 52.5 178.133 52.5ZM185.717 41.8636V53.5H184.376V41.8636H185.717ZM188.173 53.5V44.7727H189.468V46.1364H189.582C189.763 45.6705 190.057 45.3087 190.462 45.0511C190.868 44.7898 191.354 44.6591 191.923 44.6591C192.498 44.6591 192.978 44.7898 193.36 45.0511C193.746 45.3087 194.048 45.6705 194.263 46.1364H194.354C194.578 45.6856 194.913 45.3277 195.36 45.0625C195.807 44.7936 196.343 44.6591 196.968 44.6591C197.748 44.6591 198.387 44.9034 198.883 45.392C199.379 45.8769 199.627 46.6326 199.627 47.6591V53.5H198.286V47.6591C198.286 47.0152 198.11 46.5549 197.758 46.2784C197.406 46.0019 196.991 45.8636 196.513 45.8636C195.9 45.8636 195.424 46.0492 195.087 46.4205C194.75 46.7879 194.582 47.2538 194.582 47.8182V53.5H193.218V47.5227C193.218 47.0265 193.057 46.6269 192.735 46.3239C192.413 46.017 191.998 45.8636 191.491 45.8636C191.142 45.8636 190.817 45.9564 190.513 46.142C190.214 46.3277 189.972 46.5852 189.786 46.9148C189.604 47.2405 189.513 47.6174 189.513 48.0455V53.5H188.173ZM204.647 53.7045C204.094 53.7045 203.592 53.6004 203.141 53.392C202.691 53.1799 202.333 52.875 202.067 52.4773C201.802 52.0758 201.67 51.5909 201.67 51.0227C201.67 50.5227 201.768 50.1174 201.965 49.8068C202.162 49.4924 202.425 49.2462 202.755 49.0682C203.085 48.8902 203.448 48.7576 203.846 48.6705C204.247 48.5795 204.651 48.5076 205.056 48.4545C205.586 48.3864 206.016 48.3352 206.346 48.3011C206.679 48.2633 206.922 48.2008 207.073 48.1136C207.228 48.0265 207.306 47.875 207.306 47.6591V47.6136C207.306 47.053 207.153 46.6174 206.846 46.3068C206.543 45.9962 206.083 45.8409 205.465 45.8409C204.825 45.8409 204.323 45.9811 203.96 46.2614C203.596 46.5417 203.34 46.8409 203.192 47.1591L201.92 46.7045C202.147 46.1742 202.45 45.7614 202.829 45.4659C203.211 45.1667 203.628 44.9583 204.079 44.8409C204.533 44.7197 204.98 44.6591 205.42 44.6591C205.7 44.6591 206.022 44.6932 206.386 44.7614C206.753 44.8258 207.107 44.9602 207.448 45.1648C207.793 45.3693 208.079 45.678 208.306 46.0909C208.533 46.5038 208.647 47.0568 208.647 47.75V53.5H207.306V52.3182H207.238C207.147 52.5076 206.996 52.7102 206.783 52.9261C206.571 53.142 206.289 53.3258 205.937 53.4773C205.585 53.6288 205.155 53.7045 204.647 53.7045ZM204.852 52.5C205.382 52.5 205.829 52.3958 206.192 52.1875C206.56 51.9792 206.836 51.7102 207.022 51.3807C207.211 51.0511 207.306 50.7045 207.306 50.3409V49.1136C207.249 49.1818 207.124 49.2443 206.931 49.3011C206.742 49.3542 206.522 49.4015 206.272 49.4432C206.026 49.4811 205.785 49.5152 205.55 49.5455C205.319 49.572 205.132 49.5947 204.988 49.6136C204.639 49.6591 204.314 49.733 204.011 49.8352C203.711 49.9337 203.469 50.0833 203.283 50.2841C203.102 50.4811 203.011 50.75 203.011 51.0909C203.011 51.5568 203.183 51.9091 203.528 52.1477C203.876 52.3826 204.317 52.5 204.852 52.5ZM212.435 48.25V53.5H211.094V41.8636H212.435V46.1364H212.549C212.754 45.6856 213.06 45.3277 213.469 45.0625C213.882 44.7936 214.432 44.6591 215.117 44.6591C215.712 44.6591 216.233 44.7784 216.68 45.017C217.127 45.2519 217.473 45.6136 217.719 46.1023C217.969 46.5871 218.094 47.2045 218.094 47.9545V53.5H216.754V48.0455C216.754 47.3523 216.574 46.8163 216.214 46.4375C215.858 46.0549 215.363 45.8636 214.731 45.8636C214.291 45.8636 213.897 45.9564 213.549 46.142C213.204 46.3277 212.932 46.5985 212.731 46.9545C212.534 47.3106 212.435 47.7424 212.435 48.25ZM223.843 53.6818C223.116 53.6818 222.474 53.4981 221.917 53.1307C221.36 52.7595 220.924 52.2367 220.61 51.5625C220.296 50.8845 220.138 50.0833 220.138 49.1591C220.138 48.2424 220.296 47.447 220.61 46.7727C220.924 46.0985 221.362 45.5777 221.923 45.2102C222.483 44.8428 223.131 44.6591 223.866 44.6591C224.434 44.6591 224.883 44.7538 225.212 44.9432C225.546 45.1288 225.799 45.3409 225.974 45.5795C226.152 45.8144 226.29 46.0076 226.388 46.1591H226.502V41.8636H227.843V53.5H226.548V52.1591H226.388C226.29 52.3182 226.15 52.5189 225.968 52.7614C225.786 53 225.527 53.214 225.19 53.4034C224.853 53.589 224.404 53.6818 223.843 53.6818ZM224.025 52.4773C224.563 52.4773 225.017 52.3371 225.388 52.0568C225.76 51.7727 226.042 51.3807 226.235 50.8807C226.428 50.3769 226.525 49.7955 226.525 49.1364C226.525 48.4848 226.43 47.9148 226.241 47.4261C226.051 46.9337 225.771 46.5511 225.4 46.2784C225.029 46.0019 224.57 45.8636 224.025 45.8636C223.457 45.8636 222.983 46.0095 222.604 46.3011C222.229 46.589 221.947 46.9811 221.758 47.4773C221.572 47.9697 221.479 48.5227 221.479 49.1364C221.479 49.7576 221.574 50.322 221.763 50.8295C221.957 51.3333 222.241 51.7348 222.616 52.0341C222.995 52.3295 223.464 52.4773 224.025 52.4773ZM230.485 53.5V44.7727H231.826V53.5H230.485ZM231.167 43.3182C230.906 43.3182 230.68 43.2292 230.491 43.0511C230.305 42.8731 230.212 42.6591 230.212 42.4091C230.212 42.1591 230.305 41.9451 230.491 41.767C230.68 41.589 230.906 41.5 231.167 41.5C231.428 41.5 231.652 41.589 231.837 41.767C232.027 41.9451 232.121 42.1591 232.121 42.4091C232.121 42.6591 232.027 42.8731 231.837 43.0511C231.652 43.2292 231.428 43.3182 231.167 43.3182ZM237.577 53.6818C236.85 53.6818 236.208 53.4981 235.651 53.1307C235.094 52.7595 234.659 52.2367 234.344 51.5625C234.03 50.8845 233.873 50.0833 233.873 49.1591C233.873 48.2424 234.03 47.447 234.344 46.7727C234.659 46.0985 235.096 45.5777 235.657 45.2102C236.218 44.8428 236.865 44.6591 237.6 44.6591C238.168 44.6591 238.617 44.7538 238.947 44.9432C239.28 45.1288 239.534 45.3409 239.708 45.5795C239.886 45.8144 240.024 46.0076 240.123 46.1591H240.237V41.8636H241.577V53.5H240.282V52.1591H240.123C240.024 52.3182 239.884 52.5189 239.702 52.7614C239.521 53 239.261 53.214 238.924 53.4034C238.587 53.589 238.138 53.6818 237.577 53.6818ZM237.759 52.4773C238.297 52.4773 238.752 52.3371 239.123 52.0568C239.494 51.7727 239.776 51.3807 239.969 50.8807C240.163 50.3769 240.259 49.7955 240.259 49.1364C240.259 48.4848 240.165 47.9148 239.975 47.4261C239.786 46.9337 239.505 46.5511 239.134 46.2784C238.763 46.0019 238.305 45.8636 237.759 45.8636C237.191 45.8636 236.718 46.0095 236.339 46.3011C235.964 46.589 235.682 46.9811 235.492 47.4773C235.307 47.9697 235.214 48.5227 235.214 49.1364C235.214 49.7576 235.308 50.322 235.498 50.8295C235.691 51.3333 235.975 51.7348 236.35 52.0341C236.729 52.3295 237.199 52.4773 237.759 52.4773ZM247.879 53.6818C247.038 53.6818 246.312 53.4962 245.702 53.125C245.096 52.75 244.629 52.2273 244.299 51.5568C243.973 50.8826 243.81 50.0985 243.81 49.2045C243.81 48.3106 243.973 47.5227 244.299 46.8409C244.629 46.1553 245.087 45.6212 245.674 45.2386C246.265 44.8523 246.954 44.6591 247.742 44.6591C248.197 44.6591 248.646 44.7348 249.089 44.8864C249.532 45.0379 249.935 45.2841 250.299 45.625C250.663 45.9621 250.952 46.4091 251.168 46.9659C251.384 47.5227 251.492 48.2083 251.492 49.0227V49.5909H244.765V48.4318H250.129C250.129 47.9394 250.03 47.5 249.833 47.1136C249.64 46.7273 249.363 46.4223 249.004 46.1989C248.647 45.9754 248.227 45.8636 247.742 45.8636C247.208 45.8636 246.746 45.9962 246.356 46.2614C245.969 46.5227 245.672 46.8636 245.464 47.2841C245.255 47.7045 245.151 48.1553 245.151 48.6364V49.4091C245.151 50.0682 245.265 50.6269 245.492 51.0852C245.723 51.5398 246.043 51.8864 246.452 52.125C246.862 52.3598 247.337 52.4773 247.879 52.4773C248.231 52.4773 248.549 52.428 248.833 52.3295C249.121 52.2273 249.369 52.0758 249.577 51.875C249.786 51.6705 249.947 51.4167 250.06 51.1136L251.356 51.4773C251.219 51.9167 250.99 52.303 250.668 52.6364C250.346 52.9659 249.949 53.2235 249.475 53.4091C249.002 53.5909 248.469 53.6818 247.879 53.6818ZM260.403 44.7727L257.175 53.5H255.812L252.585 44.7727H254.039L256.448 51.7273H256.539L258.948 44.7727H260.403Z" fill="white"/>
</svg>
