<svg width="259" height="96" viewBox="0 0 259 96" fill="none" xmlns="http://www.w3.org/2000/svg">
<rect x="0.5" y="0.5" width="258" height="95" rx="8.5" fill="#373737"/>
<rect x="0.5" y="0.5" width="258" height="95" rx="8.5" stroke="#494949"/>
<rect x="17" y="19" width="57" height="58" rx="12" fill="#0DAA14"/>
<g clip-path="url(#clip0_116_13)">
<path d="M63.9342 66.7384C63.885 66.669 63.839 66.5977 63.7904 66.5277C61.5471 63.2657 59.3038 60.0031 57.0586 56.7423C55.8485 54.9853 54.6345 53.2308 53.4225 51.4751C52.0296 49.4572 50.6405 47.4367 49.2394 45.4252C49.0688 45.1802 49.0771 45.0198 49.2751 44.7939C50.339 43.5803 51.3862 42.3522 52.4398 41.1297C54.8319 38.3551 57.2235 35.5799 59.6169 32.8067C60.6232 31.6408 61.6353 30.4807 62.6423 29.3155C62.6998 29.2487 62.8122 29.1864 62.7585 29.0769C62.7145 28.9872 62.6071 29.0184 62.526 29.0184C61.6743 29.0158 60.8219 29.0203 59.9702 29.0145C59.7581 29.0126 59.6144 29.103 59.4808 29.2589C57.9729 31.0146 56.4599 32.7666 54.9489 34.5204C52.5989 37.2466 50.2489 39.9747 47.8976 42.7002C47.5992 43.0458 47.5947 43.0413 47.3404 42.6722C46.1469 40.942 44.9528 39.213 43.7605 37.482C41.9114 34.7985 40.0598 32.1175 38.2222 29.4263C38.021 29.131 37.8088 29.0056 37.444 29.0069C34.1011 29.0203 30.7576 29.0152 27.414 29.0177C27.2792 29.0177 27.0895 28.9535 27.0224 29.068C26.9393 29.2093 27.1118 29.3308 27.1917 29.4466C29.4037 32.6654 31.6182 35.8829 33.834 39.0997C36.3029 42.6837 38.7717 46.2677 41.2476 49.8466C41.4003 50.0675 41.4054 50.2189 41.2259 50.4264C39.8477 52.0141 38.4816 53.6127 37.1073 55.2036C35.754 56.7703 34.3931 58.3307 33.0392 59.8974C31.109 62.1311 29.182 64.3673 27.2556 66.6041C27.168 66.7065 27.053 66.7931 27 66.9935C27.9156 66.9935 28.798 66.9834 29.6797 66.9993C29.9838 67.005 30.1928 66.9115 30.3921 66.6773C31.5677 65.2938 32.7568 63.9218 33.9446 62.5479C35.4512 60.8042 36.961 59.0644 38.4676 57.3208C39.8419 55.7299 41.2118 54.1351 42.5855 52.5436C42.8641 52.2203 42.8877 52.2209 43.1331 52.5767C43.7062 53.4058 44.2742 54.2388 44.848 55.068C45.9476 56.657 47.0523 58.2416 48.1487 59.8319C49.709 62.0948 51.2686 64.359 52.8148 66.6315C52.9988 66.9019 53.1976 67.0012 53.5202 66.9999C56.8746 66.9897 60.2284 66.9935 63.5821 66.9935C63.6569 66.9935 63.7316 66.9923 63.8058 66.9916C64.0172 66.9916 64.0492 66.9025 63.9342 66.7384ZM59.4751 64.7268C59.4118 64.7294 59.3479 64.7313 59.284 64.7313C57.8464 64.7313 56.4095 64.7236 54.9725 64.7376C54.6907 64.7402 54.5246 64.6364 54.3719 64.4163C53.3273 62.9062 52.2762 61.4005 51.2201 59.8987C49.7071 57.7452 48.1838 55.5988 46.6728 53.4447C44.3566 50.1432 42.0488 46.836 39.7327 43.5339C38.3615 41.5796 36.9776 39.6342 35.6071 37.6793C34.2359 35.7244 32.8744 33.7631 31.5121 31.8025C31.4438 31.7038 31.2962 31.6046 31.3729 31.4735C31.4451 31.3519 31.6073 31.4105 31.7294 31.4098C32.4431 31.4054 33.1561 31.4073 33.8692 31.4073C34.5822 31.4073 35.2537 31.4251 35.9451 31.3996C36.276 31.3876 36.4728 31.5129 36.6517 31.7738C37.5296 33.0504 38.4177 34.3199 39.3084 35.5876C40.3397 37.0557 41.3805 38.5161 42.4098 39.9849C44.3892 42.8091 46.3616 45.639 48.341 48.4625C49.401 49.9746 50.4725 51.4783 51.5357 52.9884C52.8065 54.7931 54.0767 56.5985 55.3424 58.407C56.7174 60.3715 58.0873 62.3398 59.4591 64.3068C59.5077 64.3762 59.5575 64.4455 59.5977 64.52C59.668 64.6504 59.6227 64.7211 59.4751 64.7268Z" fill="#373737"/>
<path d="M59.4753 64.727C59.412 64.7296 59.3481 64.7315 59.2843 64.7315C57.8467 64.7315 56.4097 64.7238 54.9727 64.7378C54.691 64.7404 54.5248 64.6366 54.3721 64.4165C53.3275 62.9064 52.2764 61.4007 51.2203 59.8989C49.7073 57.7454 48.1841 55.599 46.673 53.4449C44.3569 50.1434 42.049 46.8362 39.7329 43.5341C38.3617 41.5798 36.9778 39.6344 35.6073 37.6795C34.2361 35.7246 32.8746 33.7633 31.5124 31.8027C31.444 31.704 31.2964 31.6048 31.3731 31.4737C31.4453 31.3521 31.6076 31.4107 31.7296 31.41C32.4433 31.4056 33.1563 31.4075 33.8694 31.4075C34.5824 31.4075 35.254 31.4253 35.9453 31.3998C36.2763 31.3878 36.4731 31.5131 36.652 31.774C37.5298 33.0506 38.418 34.3201 39.3086 35.5878C40.3399 37.0559 41.3807 38.5163 42.41 39.9851C44.3894 42.8093 46.3618 45.6392 48.3412 48.4627C49.4012 49.9748 50.4727 51.4785 51.5359 52.9886C52.8067 54.7933 54.0769 56.5987 55.3427 58.4072C56.7177 60.3717 58.0875 62.34 59.4593 64.307C59.5079 64.3764 59.5577 64.4457 59.598 64.5202C59.6683 64.6506 59.6229 64.7213 59.4753 64.727Z" fill="#0DAA14"/>
</g>
<path d="M103.825 41.3182L100.075 55.25H98.848L102.598 41.3182H103.825ZM105.415 53.5V44.7727H106.71V46.1364H106.824C107.006 45.6705 107.299 45.3087 107.705 45.0511C108.11 44.7898 108.597 44.6591 109.165 44.6591C109.741 44.6591 110.22 44.7898 110.602 45.0511C110.989 45.3087 111.29 45.6705 111.506 46.1364H111.597C111.82 45.6856 112.155 45.3277 112.602 45.0625C113.049 44.7936 113.585 44.6591 114.21 44.6591C114.991 44.6591 115.629 44.9034 116.125 45.392C116.621 45.8769 116.869 46.6326 116.869 47.6591V53.5H115.528V47.6591C115.528 47.0152 115.352 46.5549 115 46.2784C114.648 46.0019 114.233 45.8636 113.756 45.8636C113.142 45.8636 112.667 46.0492 112.33 46.4205C111.992 46.7879 111.824 47.2538 111.824 47.8182V53.5H110.46V47.5227C110.46 47.0265 110.299 46.6269 109.977 46.3239C109.655 46.017 109.241 45.8636 108.733 45.8636C108.384 45.8636 108.059 45.9564 107.756 46.142C107.456 46.3277 107.214 46.5852 107.028 46.9148C106.847 47.2405 106.756 47.6174 106.756 48.0455V53.5H105.415ZM121.889 53.7045C121.336 53.7045 120.834 53.6004 120.384 53.392C119.933 53.1799 119.575 52.875 119.31 52.4773C119.045 52.0758 118.912 51.5909 118.912 51.0227C118.912 50.5227 119.01 50.1174 119.207 49.8068C119.404 49.4924 119.668 49.2462 119.997 49.0682C120.327 48.8902 120.69 48.7576 121.088 48.6705C121.49 48.5795 121.893 48.5076 122.298 48.4545C122.829 48.3864 123.259 48.3352 123.588 48.3011C123.921 48.2633 124.164 48.2008 124.315 48.1136C124.471 48.0265 124.548 47.875 124.548 47.6591V47.6136C124.548 47.053 124.395 46.6174 124.088 46.3068C123.785 45.9962 123.325 45.8409 122.707 45.8409C122.067 45.8409 121.565 45.9811 121.202 46.2614C120.838 46.5417 120.582 46.8409 120.435 47.1591L119.162 46.7045C119.389 46.1742 119.692 45.7614 120.071 45.4659C120.454 45.1667 120.87 44.9583 121.321 44.8409C121.776 44.7197 122.223 44.6591 122.662 44.6591C122.942 44.6591 123.264 44.6932 123.628 44.7614C123.995 44.8258 124.349 44.9602 124.69 45.1648C125.035 45.3693 125.321 45.678 125.548 46.0909C125.776 46.5038 125.889 47.0568 125.889 47.75V53.5H124.548V52.3182H124.48C124.389 52.5076 124.238 52.7102 124.026 52.9261C123.813 53.142 123.531 53.3258 123.179 53.4773C122.827 53.6288 122.397 53.7045 121.889 53.7045ZM122.094 52.5C122.624 52.5 123.071 52.3958 123.435 52.1875C123.802 51.9792 124.079 51.7102 124.264 51.3807C124.454 51.0511 124.548 50.7045 124.548 50.3409V49.1136C124.491 49.1818 124.366 49.2443 124.173 49.3011C123.984 49.3542 123.764 49.4015 123.514 49.4432C123.268 49.4811 123.027 49.5152 122.793 49.5455C122.562 49.572 122.374 49.5947 122.23 49.6136C121.882 49.6591 121.556 49.733 121.253 49.8352C120.954 49.9337 120.711 50.0833 120.526 50.2841C120.344 50.4811 120.253 50.75 120.253 51.0909C120.253 51.5568 120.425 51.9091 120.77 52.1477C121.118 52.3826 121.56 52.5 122.094 52.5ZM134.518 46.7273L133.314 47.0682C133.238 46.8674 133.126 46.6723 132.979 46.483C132.835 46.2898 132.638 46.1307 132.388 46.0057C132.138 45.8807 131.818 45.8182 131.428 45.8182C130.893 45.8182 130.448 45.9413 130.092 46.1875C129.74 46.4299 129.564 46.7386 129.564 47.1136C129.564 47.447 129.685 47.7102 129.928 47.9034C130.17 48.0966 130.549 48.2576 131.064 48.3864L132.359 48.7045C133.14 48.8939 133.721 49.1837 134.104 49.5739C134.486 49.9602 134.678 50.4583 134.678 51.0682C134.678 51.5682 134.534 52.0152 134.246 52.4091C133.962 52.803 133.564 53.1136 133.053 53.3409C132.541 53.5682 131.946 53.6818 131.268 53.6818C130.378 53.6818 129.642 53.4886 129.058 53.1023C128.475 52.7159 128.106 52.1515 127.95 51.4091L129.223 51.0909C129.344 51.5606 129.573 51.9129 129.911 52.1477C130.251 52.3826 130.696 52.5 131.246 52.5C131.871 52.5 132.367 52.3674 132.734 52.1023C133.106 51.8333 133.291 51.5114 133.291 51.1364C133.291 50.8333 133.185 50.5795 132.973 50.375C132.761 50.1667 132.435 50.0114 131.996 49.9091L130.541 49.5682C129.742 49.3788 129.155 49.0852 128.78 48.6875C128.409 48.286 128.223 47.7841 128.223 47.1818C128.223 46.6894 128.361 46.2538 128.638 45.875C128.918 45.4962 129.299 45.1989 129.78 44.983C130.265 44.767 130.814 44.6591 131.428 44.6591C132.291 44.6591 132.969 44.8485 133.462 45.2273C133.958 45.6061 134.31 46.1061 134.518 46.7273ZM142.196 49.9318V44.7727H143.537V53.5H142.196V52.0227H142.105C141.901 52.4659 141.582 52.8428 141.151 53.1534C140.719 53.4602 140.173 53.6136 139.514 53.6136C138.969 53.6136 138.484 53.4943 138.06 53.2557C137.635 53.0133 137.302 52.6496 137.06 52.1648C136.817 51.6761 136.696 51.0606 136.696 50.3182V44.7727H138.037V50.2273C138.037 50.8636 138.215 51.3712 138.571 51.75C138.931 52.1288 139.389 52.3182 139.946 52.3182C140.279 52.3182 140.618 52.233 140.963 52.0625C141.312 51.892 141.603 51.6307 141.838 51.2784C142.077 50.9261 142.196 50.4773 142.196 49.9318ZM149.288 53.6818C148.561 53.6818 147.919 53.4981 147.362 53.1307C146.805 52.7595 146.37 52.2367 146.055 51.5625C145.741 50.8845 145.584 50.0833 145.584 49.1591C145.584 48.2424 145.741 47.447 146.055 46.7727C146.37 46.0985 146.807 45.5777 147.368 45.2102C147.929 44.8428 148.576 44.6591 149.311 44.6591C149.879 44.6591 150.328 44.7538 150.658 44.9432C150.991 45.1288 151.245 45.3409 151.419 45.5795C151.597 45.8144 151.735 46.0076 151.834 46.1591H151.947V41.8636H153.288V53.5H151.993V52.1591H151.834C151.735 52.3182 151.595 52.5189 151.413 52.7614C151.232 53 150.972 53.214 150.635 53.4034C150.298 53.589 149.849 53.6818 149.288 53.6818ZM149.47 52.4773C150.008 52.4773 150.463 52.3371 150.834 52.0568C151.205 51.7727 151.487 51.3807 151.68 50.8807C151.874 50.3769 151.97 49.7955 151.97 49.1364C151.97 48.4848 151.875 47.9148 151.686 47.4261C151.497 46.9337 151.216 46.5511 150.845 46.2784C150.474 46.0019 150.016 45.8636 149.47 45.8636C148.902 45.8636 148.429 46.0095 148.05 46.3011C147.675 46.589 147.393 46.9811 147.203 47.4773C147.018 47.9697 146.925 48.5227 146.925 49.1364C146.925 49.7576 147.019 50.322 147.209 50.8295C147.402 51.3333 147.686 51.7348 148.061 52.0341C148.44 52.3295 148.91 52.4773 149.47 52.4773ZM158.499 53.7045C157.946 53.7045 157.444 53.6004 156.993 53.392C156.542 53.1799 156.184 52.875 155.919 52.4773C155.654 52.0758 155.521 51.5909 155.521 51.0227C155.521 50.5227 155.62 50.1174 155.817 49.8068C156.014 49.4924 156.277 49.2462 156.607 49.0682C156.936 48.8902 157.3 48.7576 157.697 48.6705C158.099 48.5795 158.502 48.5076 158.908 48.4545C159.438 48.3864 159.868 48.3352 160.197 48.3011C160.531 48.2633 160.773 48.2008 160.925 48.1136C161.08 48.0265 161.158 47.875 161.158 47.6591V47.6136C161.158 47.053 161.004 46.6174 160.697 46.3068C160.394 45.9962 159.934 45.8409 159.317 45.8409C158.677 45.8409 158.175 45.9811 157.811 46.2614C157.447 46.5417 157.192 46.8409 157.044 47.1591L155.771 46.7045C155.999 46.1742 156.302 45.7614 156.68 45.4659C157.063 45.1667 157.48 44.9583 157.93 44.8409C158.385 44.7197 158.832 44.6591 159.271 44.6591C159.552 44.6591 159.874 44.6932 160.237 44.7614C160.605 44.8258 160.959 44.9602 161.3 45.1648C161.644 45.3693 161.93 45.678 162.158 46.0909C162.385 46.5038 162.499 47.0568 162.499 47.75V53.5H161.158V52.3182H161.089C160.999 52.5076 160.847 52.7102 160.635 52.9261C160.423 53.142 160.141 53.3258 159.788 53.4773C159.436 53.6288 159.006 53.7045 158.499 53.7045ZM158.703 52.5C159.233 52.5 159.68 52.3958 160.044 52.1875C160.411 51.9792 160.688 51.7102 160.874 51.3807C161.063 51.0511 161.158 50.7045 161.158 50.3409V49.1136C161.101 49.1818 160.976 49.2443 160.783 49.3011C160.593 49.3542 160.374 49.4015 160.124 49.4432C159.877 49.4811 159.637 49.5152 159.402 49.5455C159.171 49.572 158.983 49.5947 158.839 49.6136C158.491 49.6591 158.165 49.733 157.862 49.8352C157.563 49.9337 157.321 50.0833 157.135 50.2841C156.953 50.4811 156.862 50.75 156.862 51.0909C156.862 51.5568 157.035 51.9091 157.379 52.1477C157.728 52.3826 158.169 52.5 158.703 52.5ZM166.287 41.8636V53.5H164.946V41.8636H166.287ZM168.743 53.5V44.7727H170.038V46.1364H170.152C170.334 45.6705 170.627 45.3087 171.033 45.0511C171.438 44.7898 171.925 44.6591 172.493 44.6591C173.069 44.6591 173.548 44.7898 173.93 45.0511C174.317 45.3087 174.618 45.6705 174.834 46.1364H174.925C175.148 45.6856 175.483 45.3277 175.93 45.0625C176.377 44.7936 176.913 44.6591 177.538 44.6591C178.319 44.6591 178.957 44.9034 179.453 45.392C179.949 45.8769 180.197 46.6326 180.197 47.6591V53.5H178.857V47.6591C178.857 47.0152 178.68 46.5549 178.328 46.2784C177.976 46.0019 177.561 45.8636 177.084 45.8636C176.47 45.8636 175.995 46.0492 175.658 46.4205C175.321 46.7879 175.152 47.2538 175.152 47.8182V53.5H173.788V47.5227C173.788 47.0265 173.627 46.6269 173.305 46.3239C172.983 46.017 172.569 45.8636 172.061 45.8636C171.713 45.8636 171.387 45.9564 171.084 46.142C170.785 46.3277 170.542 46.5852 170.357 46.9148C170.175 47.2405 170.084 47.6174 170.084 48.0455V53.5H168.743ZM185.217 53.7045C184.664 53.7045 184.162 53.6004 183.712 53.392C183.261 53.1799 182.903 52.875 182.638 52.4773C182.373 52.0758 182.24 51.5909 182.24 51.0227C182.24 50.5227 182.339 50.1174 182.536 49.8068C182.732 49.4924 182.996 49.2462 183.325 49.0682C183.655 48.8902 184.018 48.7576 184.416 48.6705C184.818 48.5795 185.221 48.5076 185.626 48.4545C186.157 48.3864 186.587 48.3352 186.916 48.3011C187.25 48.2633 187.492 48.2008 187.643 48.1136C187.799 48.0265 187.876 47.875 187.876 47.6591V47.6136C187.876 47.053 187.723 46.6174 187.416 46.3068C187.113 45.9962 186.653 45.8409 186.036 45.8409C185.395 45.8409 184.893 45.9811 184.53 46.2614C184.166 46.5417 183.911 46.8409 183.763 47.1591L182.49 46.7045C182.717 46.1742 183.02 45.7614 183.399 45.4659C183.782 45.1667 184.198 44.9583 184.649 44.8409C185.104 44.7197 185.551 44.6591 185.99 44.6591C186.27 44.6591 186.592 44.6932 186.956 44.7614C187.323 44.8258 187.678 44.9602 188.018 45.1648C188.363 45.3693 188.649 45.678 188.876 46.0909C189.104 46.5038 189.217 47.0568 189.217 47.75V53.5H187.876V52.3182H187.808C187.717 52.5076 187.566 52.7102 187.354 52.9261C187.142 53.142 186.859 53.3258 186.507 53.4773C186.155 53.6288 185.725 53.7045 185.217 53.7045ZM185.422 52.5C185.952 52.5 186.399 52.3958 186.763 52.1875C187.13 51.9792 187.407 51.7102 187.592 51.3807C187.782 51.0511 187.876 50.7045 187.876 50.3409V49.1136C187.82 49.1818 187.695 49.2443 187.501 49.3011C187.312 49.3542 187.092 49.4015 186.842 49.4432C186.596 49.4811 186.356 49.5152 186.121 49.5455C185.89 49.572 185.702 49.5947 185.558 49.6136C185.21 49.6591 184.884 49.733 184.581 49.8352C184.282 49.9337 184.039 50.0833 183.854 50.2841C183.672 50.4811 183.581 50.75 183.581 51.0909C183.581 51.5568 183.753 51.9091 184.098 52.1477C184.446 52.3826 184.888 52.5 185.422 52.5ZM193.006 48.25V53.5H191.665V41.8636H193.006V46.1364H193.119C193.324 45.6856 193.631 45.3277 194.04 45.0625C194.453 44.7936 195.002 44.6591 195.688 44.6591C196.282 44.6591 196.803 44.7784 197.25 45.017C197.697 45.2519 198.044 45.6136 198.29 46.1023C198.54 46.5871 198.665 47.2045 198.665 47.9545V53.5H197.324V48.0455C197.324 47.3523 197.144 46.8163 196.784 46.4375C196.428 46.0549 195.934 45.8636 195.301 45.8636C194.862 45.8636 194.468 45.9564 194.119 46.142C193.775 46.3277 193.502 46.5985 193.301 46.9545C193.104 47.3106 193.006 47.7424 193.006 48.25ZM204.413 53.6818C203.686 53.6818 203.044 53.4981 202.487 53.1307C201.93 52.7595 201.495 52.2367 201.18 51.5625C200.866 50.8845 200.709 50.0833 200.709 49.1591C200.709 48.2424 200.866 47.447 201.18 46.7727C201.495 46.0985 201.932 45.5777 202.493 45.2102C203.054 44.8428 203.701 44.6591 204.436 44.6591C205.004 44.6591 205.453 44.7538 205.783 44.9432C206.116 45.1288 206.37 45.3409 206.544 45.5795C206.722 45.8144 206.86 46.0076 206.959 46.1591H207.072V41.8636H208.413V53.5H207.118V52.1591H206.959C206.86 52.3182 206.72 52.5189 206.538 52.7614C206.357 53 206.097 53.214 205.76 53.4034C205.423 53.589 204.974 53.6818 204.413 53.6818ZM204.595 52.4773C205.133 52.4773 205.588 52.3371 205.959 52.0568C206.33 51.7727 206.612 51.3807 206.805 50.8807C206.999 50.3769 207.095 49.7955 207.095 49.1364C207.095 48.4848 207 47.9148 206.811 47.4261C206.622 46.9337 206.341 46.5511 205.97 46.2784C205.599 46.0019 205.141 45.8636 204.595 45.8636C204.027 45.8636 203.554 46.0095 203.175 46.3011C202.8 46.589 202.518 46.9811 202.328 47.4773C202.143 47.9697 202.05 48.5227 202.05 49.1364C202.05 49.7576 202.144 50.322 202.334 50.8295C202.527 51.3333 202.811 51.7348 203.186 52.0341C203.565 52.3295 204.035 52.4773 204.595 52.4773ZM211.055 53.5V44.7727H212.396V53.5H211.055ZM211.737 43.3182C211.476 43.3182 211.25 43.2292 211.061 43.0511C210.875 42.8731 210.783 42.6591 210.783 42.4091C210.783 42.1591 210.875 41.9451 211.061 41.767C211.25 41.589 211.476 41.5 211.737 41.5C211.999 41.5 212.222 41.589 212.408 41.767C212.597 41.9451 212.692 42.1591 212.692 42.4091C212.692 42.6591 212.597 42.8731 212.408 43.0511C212.222 43.2292 211.999 43.3182 211.737 43.3182ZM218.148 53.6818C217.42 53.6818 216.778 53.4981 216.222 53.1307C215.665 52.7595 215.229 52.2367 214.915 51.5625C214.6 50.8845 214.443 50.0833 214.443 49.1591C214.443 48.2424 214.6 47.447 214.915 46.7727C215.229 46.0985 215.667 45.5777 216.227 45.2102C216.788 44.8428 217.436 44.6591 218.17 44.6591C218.739 44.6591 219.188 44.7538 219.517 44.9432C219.85 45.1288 220.104 45.3409 220.278 45.5795C220.456 45.8144 220.595 46.0076 220.693 46.1591H220.807V41.8636H222.148V53.5H220.852V52.1591H220.693C220.595 52.3182 220.455 52.5189 220.273 52.7614C220.091 53 219.831 53.214 219.494 53.4034C219.157 53.589 218.708 53.6818 218.148 53.6818ZM218.33 52.4773C218.867 52.4773 219.322 52.3371 219.693 52.0568C220.064 51.7727 220.347 51.3807 220.54 50.8807C220.733 50.3769 220.83 49.7955 220.83 49.1364C220.83 48.4848 220.735 47.9148 220.545 47.4261C220.356 46.9337 220.076 46.5511 219.705 46.2784C219.333 46.0019 218.875 45.8636 218.33 45.8636C217.761 45.8636 217.288 46.0095 216.909 46.3011C216.534 46.589 216.252 46.9811 216.062 47.4773C215.877 47.9697 215.784 48.5227 215.784 49.1364C215.784 49.7576 215.879 50.322 216.068 50.8295C216.261 51.3333 216.545 51.7348 216.92 52.0341C217.299 52.3295 217.769 52.4773 218.33 52.4773ZM228.449 53.6818C227.608 53.6818 226.883 53.4962 226.273 53.125C225.667 52.75 225.199 52.2273 224.869 51.5568C224.544 50.8826 224.381 50.0985 224.381 49.2045C224.381 48.3106 224.544 47.5227 224.869 46.8409C225.199 46.1553 225.657 45.6212 226.244 45.2386C226.835 44.8523 227.525 44.6591 228.312 44.6591C228.767 44.6591 229.216 44.7348 229.659 44.8864C230.102 45.0379 230.506 45.2841 230.869 45.625C231.233 45.9621 231.523 46.4091 231.739 46.9659C231.955 47.5227 232.062 48.2083 232.062 49.0227V49.5909H225.335V48.4318H230.699C230.699 47.9394 230.6 47.5 230.403 47.1136C230.21 46.7273 229.934 46.4223 229.574 46.1989C229.218 45.9754 228.797 45.8636 228.312 45.8636C227.778 45.8636 227.316 45.9962 226.926 46.2614C226.54 46.5227 226.242 46.8636 226.034 47.2841C225.826 47.7045 225.722 48.1553 225.722 48.6364V49.4091C225.722 50.0682 225.835 50.6269 226.062 51.0852C226.294 51.5398 226.614 51.8864 227.023 52.125C227.432 52.3598 227.907 52.4773 228.449 52.4773C228.801 52.4773 229.119 52.428 229.403 52.3295C229.691 52.2273 229.939 52.0758 230.148 51.875C230.356 51.6705 230.517 51.4167 230.631 51.1136L231.926 51.4773C231.79 51.9167 231.561 52.303 231.239 52.6364C230.917 52.9659 230.519 53.2235 230.045 53.4091C229.572 53.5909 229.04 53.6818 228.449 53.6818ZM240.973 44.7727L237.746 53.5H236.382L233.155 44.7727H234.609L237.018 51.7273H237.109L239.518 44.7727H240.973Z" fill="white"/>
<defs>
<clipPath id="clip0_116_13">
<rect width="37" height="38" fill="white" transform="translate(27 29)"/>
</clipPath>
</defs>
</svg>
